<svg width="68" height="25" viewBox="0 0 68 25" fill="none" xmlns="http://www.w3.org/2000/svg">
<g filter="url(#filter0_d_1_5)">
<path d="M4.2642 16V1.45455H10.0028C11.1013 1.45455 12.0388 1.65104 12.8153 2.04403C13.5966 2.43229 14.1908 2.9839 14.598 3.69886C15.0099 4.40909 15.2159 5.24479 15.2159 6.20597C15.2159 7.17187 15.0076 8.00284 14.5909 8.69886C14.1742 9.39015 13.5705 9.92045 12.7798 10.2898C11.9938 10.6591 11.0421 10.8438 9.92472 10.8438H6.08239V8.37216H9.42756C10.0147 8.37216 10.5024 8.29167 10.8906 8.13068C11.2789 7.9697 11.5677 7.72822 11.7571 7.40625C11.9512 7.08428 12.0483 6.68419 12.0483 6.20597C12.0483 5.72301 11.9512 5.31581 11.7571 4.98438C11.5677 4.65294 11.2765 4.40199 10.8835 4.23153C10.4953 4.05634 10.0052 3.96875 9.41335 3.96875H7.33949V16H4.2642ZM12.1193 9.38068L15.7344 16H12.3395L8.80256 9.38068H12.1193ZM23.1989 5.09091V7.36364H16.4659V5.09091H23.1989ZM18.0071 16V4.30256C18.0071 3.51184 18.161 2.85606 18.4688 2.33523C18.7812 1.81439 19.2074 1.42377 19.7472 1.16335C20.2869 0.902935 20.9001 0.772726 21.5866 0.772726C22.0507 0.772726 22.4744 0.808238 22.858 0.879261C23.2462 0.950284 23.535 1.0142 23.7244 1.07102L23.1847 3.34375C23.0663 3.30587 22.9195 3.27036 22.7443 3.23722C22.5739 3.20407 22.3987 3.1875 22.2188 3.1875C21.7737 3.1875 21.4635 3.29167 21.2884 3.5C21.1132 3.7036 21.0256 3.99006 21.0256 4.35938V16H18.0071ZM25.0472 16V5.09091H28.0728V16H25.0472ZM26.5671 3.68466C26.1173 3.68466 25.7314 3.53551 25.4094 3.23722C25.0922 2.93419 24.9336 2.57197 24.9336 2.15057C24.9336 1.7339 25.0922 1.37642 25.4094 1.07812C25.7314 0.775094 26.1173 0.623579 26.5671 0.623579C27.0169 0.623579 27.4004 0.775094 27.7177 1.07812C28.0397 1.37642 28.2006 1.7339 28.2006 2.15057C28.2006 2.57197 28.0397 2.93419 27.7177 3.23722C27.4004 3.53551 27.0169 3.68466 26.5671 3.68466ZM33.522 1.45455V16H30.4964V1.45455H33.522ZM35.9457 16V5.09091H38.8292V7.01562H38.957C39.1843 6.37642 39.5631 5.87216 40.0934 5.50284C40.6237 5.13352 41.2582 4.94886 41.9968 4.94886C42.7449 4.94886 43.3817 5.13589 43.9073 5.50994C44.4329 5.87926 44.7833 6.38116 44.9585 7.01562H45.0721C45.2946 6.39062 45.6971 5.8911 46.2795 5.51705C46.8666 5.13826 47.5603 4.94886 48.3604 4.94886C49.3784 4.94886 50.2047 5.2732 50.8391 5.92188C51.4783 6.56581 51.7979 7.47964 51.7979 8.66335V16H48.7795V9.25994C48.7795 8.65388 48.6185 8.19934 48.2965 7.89631C47.9746 7.59328 47.5721 7.44176 47.0891 7.44176C46.5399 7.44176 46.1114 7.61695 45.8036 7.96733C45.4959 8.31297 45.342 8.76989 45.342 9.33807V16H42.4087V9.19602C42.4087 8.66098 42.2549 8.23485 41.9471 7.91761C41.6441 7.60038 41.244 7.44176 40.7468 7.44176C40.4106 7.44176 40.1076 7.52699 39.8377 7.69744C39.5726 7.86316 39.3619 8.09754 39.2056 8.40057C39.0494 8.69886 38.9712 9.04924 38.9712 9.4517V16H35.9457ZM63.2646 8.2017L60.4947 8.37216C60.4473 8.13542 60.3455 7.92235 60.1893 7.73295C60.033 7.53883 59.8271 7.38494 59.5714 7.27131C59.3204 7.15294 59.0198 7.09375 58.6694 7.09375C58.2006 7.09375 57.8053 7.19318 57.4833 7.39205C57.1613 7.58617 57.0004 7.84659 57.0004 8.1733C57.0004 8.43371 57.1045 8.65388 57.3129 8.83381C57.5212 9.01373 57.8787 9.15814 58.3853 9.26705L60.3597 9.66477C61.4203 9.88258 62.2111 10.233 62.7319 10.7159C63.2527 11.1989 63.5131 11.8333 63.5131 12.6193C63.5131 13.3343 63.3024 13.9616 62.881 14.5014C62.4644 15.0412 61.8915 15.4626 61.1623 15.7656C60.4379 16.0639 59.6022 16.2131 58.6552 16.2131C57.2111 16.2131 56.0605 15.9124 55.2035 15.3111C54.3512 14.705 53.8517 13.8812 53.7049 12.8395L56.6808 12.6832C56.7707 13.1236 56.9885 13.4598 57.3342 13.6918C57.6798 13.919 58.1225 14.0327 58.6623 14.0327C59.1926 14.0327 59.6187 13.9309 59.9407 13.7273C60.2674 13.5189 60.4331 13.2514 60.4379 12.9247C60.4331 12.6501 60.3171 12.4252 60.0898 12.25C59.8626 12.0701 59.5122 11.9328 59.0387 11.8381L57.1495 11.4616C56.0842 11.2486 55.2911 10.8793 54.7702 10.3537C54.2541 9.82812 53.9961 9.15814 53.9961 8.34375C53.9961 7.64299 54.1855 7.0393 54.5643 6.53267C54.9478 6.02604 55.4852 5.63542 56.1765 5.3608C56.8725 5.08617 57.6869 4.94886 58.6197 4.94886C59.9975 4.94886 61.0818 5.24006 61.8725 5.82244C62.668 6.40483 63.132 7.19792 63.2646 8.2017Z" fill="white"/>
</g>
<defs>
<filter id="filter0_d_1_5" x="0.264191" y="0.623581" width="67.2489" height="23.5895" filterUnits="userSpaceOnUse" color-interpolation-filters="sRGB">
<feFlood flood-opacity="0" result="BackgroundImageFix"/>
<feColorMatrix in="SourceAlpha" type="matrix" values="0 0 0 0 0 0 0 0 0 0 0 0 0 0 0 0 0 0 127 0" result="hardAlpha"/>
<feOffset dy="4"/>
<feGaussianBlur stdDeviation="2"/>
<feComposite in2="hardAlpha" operator="out"/>
<feColorMatrix type="matrix" values="0 0 0 0 0 0 0 0 0 0 0 0 0 0 0 0 0 0 0.25 0"/>
<feBlend mode="normal" in2="BackgroundImageFix" result="effect1_dropShadow_1_5"/>
<feBlend mode="normal" in="SourceGraphic" in2="effect1_dropShadow_1_5" result="shape"/>
</filter>
</defs>
</svg>
